<svg xmlns="http://www.w3.org/2000/svg" viewBox="0 0 112 108" role="img" aria-labelledby="t"><title id="t">包包的肉包型態</title><path d="M29 24c-3-9 1-15 9-17 7-1 11 3 13 9 3-11 12-13 19-8 5 3 6 10 2 17C90 32 102 50 102 70c0 25-17 33-46 33S10 95 10 70c0-20 8-39 19-46Z" fill="#fffaf9" stroke="#574451" stroke-width="3" stroke-linejoin="round"/><path d="M36 23c-2-7 0-10 5-13m16 13c0-8 2-13 8-14" fill="none" stroke="#eec6d5" stroke-width="2.4" stroke-linecap="round"/><circle cx="36" cy="65" r="3.5" fill="#372d36"/><circle cx="76" cy="65" r="3.5" fill="#372d36"/><ellipse cx="25" cy="75" rx="9" ry="6" fill="#f7bad3" opacity=".8"/><ellipse cx="87" cy="75" rx="9" ry="6" fill="#f7bad3" opacity=".8"/><path d="M49 74q7 9 14 0" fill="none" stroke="#493440" stroke-width="2.7" stroke-linecap="round"/><path d="M55 99q-17-14-24-5-5 10 15 12l10-5q18 10 25 0 1-14-25-2Z" fill="#382e3b" stroke="#f5a7ce" stroke-width="1.5"/><circle cx="56" cy="101" r="3" fill="#f4a4c9"/></svg>